# This file uses meters as units for non-parametric coordinates.

g default
v 63.718529 34.473114 0.000000
v 163.718536 34.473114 0.000000
v 63.718529 68.047119 0.000000
v 163.718536 68.047119 0.000000
v 63.718529 72.002579 -1.558215
v 163.718536 72.002579 -1.558215
v 63.718529 75.168976 -5.320463
v 163.718536 75.168976 -5.320463
v 63.718529 75.078804 -14.480571
v 163.718536 75.078804 -14.480571
vt 0.054887 0.667159
vt 0.054963 0.946895
vt 0.204677 0.945126
vt 0.204600 0.665390
vt 0.222671 0.944914
vt 0.222595 0.665178
vt 0.239207 0.944719
vt 0.239130 0.664982
vt 0.260164 0.944471
vt 0.260087 0.664735
vn 0.000000 0.000000 1.000000
vn 0.000000 0.000000 1.000000
vn 0.000000 0.041484 0.999139
vn 0.000000 0.041484 0.999139
vn 0.000000 0.041484 0.999139
vn 0.000000 0.041484 0.999139
vn 0.000000 0.598492 0.801129
vn 0.000000 0.598492 0.801129
vn 0.000000 0.598492 0.801129
vn 0.000000 0.598492 0.801129
vn 0.000000 0.972815 0.231583
vn 0.000000 0.972815 0.231583
vn 0.000000 0.972815 0.231583
vn 0.000000 0.972815 0.231583
vn 0.000000 0.999952 -0.009843
vn 0.000000 0.999952 -0.009843
s off
g MSH_mosshang2:pPlane3
f 1/1/1 2/2/2 4/3/3 3/4/4
f 3/4/5 4/3/6 6/5/7 5/6/8
f 5/6/9 6/5/10 8/7/11 7/8/12
f 7/8/13 8/7/14 10/9/15 9/10/16
