# This file uses centimeters as units for non-parametric coordinates.

mtllib MSH_Hatch.mtl
g default
v -83.790962 296.891894 793.454412
v 102.929253 296.891894 793.454412
v -83.790962 294.334657 532.404581
v 102.929253 293.664442 532.400540
v 101.785713 298.902763 750.190788
v 101.786995 298.783776 737.746058
v 101.785713 302.483906 750.156658
v 101.786995 302.364919 737.711866
v -81.448952 302.483715 750.137674
v -81.447670 302.364728 737.693005
v -81.448952 298.902572 750.171927
v -81.447670 298.783646 737.727197
v 101.785713 299.172855 778.448607
v 101.786995 299.053929 766.003877
v 101.785713 302.753998 778.414416
v 101.786995 302.635010 765.969746
v -81.448952 302.753807 778.395493
v -81.447670 302.634881 765.950763
v -81.448952 299.172663 778.429807
v -81.447670 299.053737 765.985015
v 101.785713 298.634176 722.088377
v 101.786995 298.515189 709.643707
v 101.785713 302.215258 722.054185
v 101.786995 302.096271 709.609516
v -81.448952 302.215067 722.035263
v -81.447670 302.096080 709.590593
v -81.448952 298.633923 722.069576
v -81.447670 298.514997 709.624846
v 101.785713 298.369560 694.410435
v 101.786995 298.250512 681.965705
v 101.785713 301.950703 694.376183
v 101.786995 301.831716 681.931453
v -81.448952 301.950451 694.357321
v -81.447670 301.831464 681.912591
v -81.448952 298.369308 694.391513
v -81.447670 298.250382 681.946783
v 101.785713 298.099352 666.141690
v 101.786995 297.980364 653.697021
v 101.785713 301.680434 666.107438
v 101.786995 301.561447 653.662707
v -81.448952 301.680242 666.088576
v -81.447670 301.561255 653.643846
v -81.448952 298.099099 666.122768
v -81.447670 297.980173 653.678038
v 101.785713 297.825399 637.491690
v 101.786995 297.706412 625.047021
v 101.785713 301.406543 637.457438
v 101.786995 301.287617 625.012708
v -81.448952 301.406412 637.438577
v -81.447670 301.287486 624.993847
v -81.448952 297.825269 637.472768
v -81.447670 297.706282 625.028038
v 101.785713 297.564292 610.173152
v 101.786995 297.445305 597.728482
v 101.785713 301.145435 610.139022
v 101.786995 301.026448 597.694230
v -81.448952 301.145244 610.120099
v -81.447670 301.026256 597.675430
v -81.448952 297.564161 610.154413
v -81.447670 297.445175 597.709621
v 101.785713 297.321914 584.819728
v 101.786995 297.202988 572.374937
v 101.785713 300.902996 584.785475
v 101.786995 300.784070 572.340745
v -81.448952 300.902866 584.766614
v -81.447670 300.783879 572.321884
v -81.448952 297.321784 584.800806
v -81.447670 297.202736 572.356136
v 101.785713 297.097221 561.310926
v 101.786995 296.978295 548.866257
v 101.785713 300.678303 561.276735
v 101.786995 300.559376 548.832127
v -81.448952 300.678111 561.257873
v -81.447670 300.559185 548.813204
v -81.448952 297.097029 561.292065
v -81.447670 296.978042 548.847395
v 101.572189 292.910822 542.998544
v 101.533691 292.985870 530.553579
v 101.572189 306.360162 543.079649
v 101.533691 306.435211 530.634685
v -80.148544 306.356773 543.641651
v -80.187042 306.431822 531.196687
v -80.148544 292.907433 543.560545
v -80.187042 292.982481 531.115581
v 92.448074 295.408933 798.377260
v 104.893356 295.408933 798.377260
v 92.448074 308.858274 798.458366
v 104.893356 308.858274 798.458366
v 92.448074 306.441174 529.645872
v 104.893356 306.441174 529.645872
v 92.448074 292.991833 529.564767
v 104.893356 292.991833 529.564767
v 101.785713 295.415961 797.211876
v 101.786995 295.491010 784.766851
v 101.785713 308.865301 797.292982
v 101.786995 308.940350 784.847957
v -81.448952 308.865415 797.274183
v -81.447670 308.940464 784.829036
v -81.448952 295.416074 797.193078
v -81.447670 295.491124 784.747931
v -84.402863 295.408933 798.377260
v -71.957581 295.408933 798.377260
v -84.402863 308.858274 798.458366
v -71.957581 308.858274 798.458366
v -84.402863 306.441174 529.645872
v -71.957581 306.441174 529.645872
v -84.402863 292.991833 529.564767
v -71.957581 292.991833 529.564767
v 44.760986 304.560459 795.230791
v 57.206268 304.560459 795.230791
v 44.760986 307.148221 795.189083
v 57.206268 307.148221 795.189083
v 44.760986 302.922663 532.826312
v 57.206268 302.922663 532.826312
v 44.760986 300.334840 532.868019
v 57.206268 300.334840 532.868019
v 71.335121 304.560459 795.230791
v 83.780403 304.560459 795.230791
v 71.335121 307.148221 795.189083
v 83.780403 307.148221 795.189083
v 71.335121 302.922663 532.826312
v 83.780403 302.922663 532.826312
v 71.335121 300.334840 532.868019
v 83.780403 300.334840 532.868019
v 16.651937 304.560459 795.230791
v 29.097221 304.560459 795.230791
v 16.651937 307.148221 795.189083
v 29.097221 307.148221 795.189083
v 16.651937 302.922663 532.826312
v 29.097221 302.922663 532.826312
v 16.651937 300.334840 532.868019
v 29.097221 300.334840 532.868019
v -10.386148 304.560459 795.230791
v 2.059132 304.560459 795.230791
v -10.386148 307.148221 795.189083
v 2.059132 307.148221 795.189083
v -10.386148 302.922663 532.826312
v 2.059132 302.922663 532.826312
v -10.386148 300.334840 532.868019
v 2.059132 300.334840 532.868019
v -37.089722 304.560459 795.230791
v -24.644445 304.560459 795.230791
v -37.089722 307.148221 795.189083
v -24.644445 307.148221 795.189083
v -37.089722 302.922663 532.826312
v -24.644445 302.922663 532.826312
v -37.089722 300.334840 532.868019
v -24.644445 300.334840 532.868019
v -62.752647 304.560459 795.230791
v -50.307365 304.560459 795.230791
v -62.752647 307.148221 795.189083
v -50.307365 307.148221 795.189083
v -62.752647 302.922663 532.826312
v -50.307365 302.922663 532.826312
v -62.752647 300.334840 532.868019
v -50.307365 300.334840 532.868019
vt 0.148509 0.892076
vt 0.148718 0.992964
vt 0.007655 0.993256
vt 0.007453 0.892367
vt 0.317367 0.556031
vt 0.280906 0.556090
vt 0.280039 0.019270
vt 0.316500 0.019211
vt 0.270414 0.556106
vt 0.269547 0.019287
vt 0.326992 0.019194
vt 0.327859 0.556014
vt 0.316996 0.556236
vt 0.280535 0.556313
vt 0.279395 0.019494
vt 0.315856 0.019417
vt 0.270043 0.556336
vt 0.268903 0.019516
vt 0.326349 0.019394
vt 0.327488 0.556214
vt 0.317367 0.556031
vt 0.280906 0.556090
vt 0.280040 0.019270
vt 0.316500 0.019212
vt 0.270414 0.556107
vt 0.269547 0.019287
vt 0.326992 0.019195
vt 0.327859 0.556014
vt 0.317367 0.556031
vt 0.280906 0.556090
vt 0.280039 0.019270
vt 0.316500 0.019211
vt 0.270414 0.556107
vt 0.269547 0.019287
vt 0.326992 0.019194
vt 0.327859 0.556014
vt 0.317367 0.556031
vt 0.280906 0.556090
vt 0.280039 0.019271
vt 0.316500 0.019212
vt 0.270414 0.556107
vt 0.269547 0.019288
vt 0.326992 0.019195
vt 0.327859 0.556014
vt 0.317367 0.556031
vt 0.280906 0.556090
vt 0.280039 0.019270
vt 0.316500 0.019212
vt 0.270414 0.556107
vt 0.269547 0.019287
vt 0.326992 0.019195
vt 0.327860 0.556014
vt 0.317368 0.556031
vt 0.280906 0.556090
vt 0.280039 0.019270
vt 0.316500 0.019211
vt 0.270414 0.556107
vt 0.269547 0.019287
vt 0.326992 0.019194
vt 0.327859 0.556014
vt 0.317367 0.556031
vt 0.280906 0.556090
vt 0.280039 0.019270
vt 0.316500 0.019211
vt 0.270414 0.556107
vt 0.269547 0.019287
vt 0.326992 0.019194
vt 0.327859 0.556014
vt 0.317367 0.556031
vt 0.280906 0.556089
vt 0.280040 0.019271
vt 0.316500 0.019212
vt 0.270414 0.556106
vt 0.269547 0.019288
vt 0.326992 0.019195
vt 0.327859 0.556014
vt 0.399163 0.013726
vt 0.435623 0.013610
vt 0.437324 0.545995
vt 0.400863 0.546111
vt 0.475026 0.013484
vt 0.476727 0.545869
vt 0.361461 0.546237
vt 0.359760 0.013852
vt 0.099340 0.868571
vt 0.134931 0.839092
vt 0.095552 0.827802
vt 0.061138 0.839256
vt 0.099439 0.054230
vt 0.064109 0.042035
vt 0.137141 0.042395
vt 0.102493 0.011215
vt 0.023237 0.041613
vt 0.019362 0.837638
vt 0.399665 0.009794
vt 0.436125 0.009700
vt 0.437507 0.546519
vt 0.401046 0.546613
vt 0.475528 0.009598
vt 0.476910 0.546418
vt 0.361643 0.546715
vt 0.360262 0.009895
vt 0.134943 0.839936
vt 0.099304 0.869164
vt 0.060563 0.839519
vt 0.096293 0.827998
vt 0.064054 0.040989
vt 0.099366 0.053446
vt 0.102515 0.010497
vt 0.137244 0.040759
vt 0.019790 0.838495
vt 0.023402 0.040686
vt 0.221734 0.791513
vt 0.185273 0.791512
vt 0.185282 0.022772
vt 0.221743 0.022772
vt 0.177691 0.791512
vt 0.177700 0.022772
vt 0.229326 0.022772
vt 0.229316 0.791512
vt 0.221962 0.791184
vt 0.185339 0.791338
vt 0.185193 0.023456
vt 0.221622 0.023109
vt 0.177957 0.791022
vt 0.177229 0.023335
vt 0.229392 0.023036
vt 0.229150 0.791113
vt 0.221734 0.791512
vt 0.185273 0.791512
vt 0.185282 0.022771
vt 0.221743 0.022772
vt 0.177691 0.791512
vt 0.177700 0.022771
vt 0.229326 0.022772
vt 0.229316 0.791512
vt 0.221734 0.791513
vt 0.185273 0.791512
vt 0.185282 0.022771
vt 0.221743 0.022772
vt 0.177691 0.791512
vt 0.177700 0.022771
vt 0.229326 0.022772
vt 0.229316 0.791513
vt 0.221734 0.791513
vt 0.185273 0.791513
vt 0.185282 0.022771
vt 0.221743 0.022772
vt 0.177691 0.791513
vt 0.177700 0.022771
vt 0.229326 0.022772
vt 0.229316 0.791513
vt 0.221734 0.791513
vt 0.185273 0.791512
vt 0.185282 0.022771
vt 0.221743 0.022772
vt 0.177691 0.791512
vt 0.177700 0.022771
vt 0.229326 0.022772
vt 0.229316 0.791512
vn 0.001794 0.999937 -0.011079
vn 0.001794 0.999937 -0.011079
vn 0.001794 0.999937 -0.011079
vn 0.001794 0.999937 -0.011079
vn -0.000000 0.999954 -0.009565
vn -0.000000 0.999954 -0.009565
vn -0.000000 0.999954 -0.009565
vn -0.000000 0.999954 -0.009565
vn 0.000103 -0.009547 -0.999955
vn 0.000103 -0.009547 -0.999955
vn 0.000103 -0.009547 -0.999955
vn 0.000103 -0.009547 -0.999955
vn -0.000103 0.009547 0.999954
vn -0.000103 0.009547 0.999954
vn -0.000103 0.009547 0.999954
vn -0.000103 0.009547 0.999954
vn 0.000000 0.999954 -0.009555
vn 0.000000 0.999954 -0.009555
vn 0.000000 0.999954 -0.009555
vn 0.000000 0.999954 -0.009555
vn 0.000103 -0.009547 -0.999955
vn 0.000103 -0.009547 -0.999955
vn 0.000103 -0.009547 -0.999955
vn 0.000103 -0.009547 -0.999955
vn -0.000103 0.009565 0.999954
vn -0.000103 0.009565 0.999954
vn -0.000103 0.009565 0.999954
vn -0.000103 0.009565 0.999954
vn -0.000000 0.999954 -0.009568
vn -0.000000 0.999954 -0.009568
vn -0.000000 0.999954 -0.009568
vn -0.000000 0.999954 -0.009568
vn 0.000103 -0.009556 -0.999954
vn 0.000103 -0.009556 -0.999954
vn 0.000103 -0.009556 -0.999954
vn 0.000103 -0.009556 -0.999954
vn -0.000103 0.009564 0.999954
vn -0.000103 0.009564 0.999954
vn -0.000103 0.009564 0.999954
vn -0.000103 0.009564 0.999954
vn -0.000000 0.999954 -0.009561
vn -0.000000 0.999954 -0.009561
vn -0.000000 0.999954 -0.009561
vn -0.000000 0.999954 -0.009561
vn 0.000103 -0.009556 -0.999954
vn 0.000103 -0.009556 -0.999954
vn 0.000103 -0.009556 -0.999954
vn 0.000103 -0.009556 -0.999954
vn -0.000103 0.009556 0.999954
vn -0.000103 0.009556 0.999954
vn -0.000103 0.009556 0.999954
vn -0.000103 0.009556 0.999954
vn -0.000000 0.999954 -0.009565
vn -0.000000 0.999954 -0.009565
vn -0.000000 0.999954 -0.009565
vn -0.000000 0.999954 -0.009565
vn 0.000103 -0.009565 -0.999954
vn 0.000103 -0.009565 -0.999954
vn 0.000103 -0.009565 -0.999954
vn 0.000103 -0.009565 -0.999954
vn -0.000103 0.009556 0.999954
vn -0.000103 0.009556 0.999954
vn -0.000103 0.009556 0.999954
vn -0.000103 0.009556 0.999954
vn 0.000000 0.999954 -0.009555
vn 0.000000 0.999954 -0.009555
vn 0.000000 0.999954 -0.009555
vn 0.000000 0.999954 -0.009555
vn 0.000103 -0.009564 -0.999954
vn 0.000103 -0.009564 -0.999954
vn 0.000103 -0.009564 -0.999954
vn 0.000103 -0.009564 -0.999954
vn -0.000103 0.009556 0.999954
vn -0.000103 0.009556 0.999954
vn -0.000103 0.009556 0.999954
vn -0.000103 0.009556 0.999954
vn -0.000000 0.999954 -0.009555
vn -0.000000 0.999954 -0.009555
vn -0.000000 0.999954 -0.009555
vn -0.000000 0.999954 -0.009555
vn 0.000103 -0.009556 -0.999954
vn 0.000103 -0.009556 -0.999954
vn 0.000103 -0.009556 -0.999954
vn 0.000103 -0.009556 -0.999954
vn -0.000103 0.009556 0.999954
vn -0.000103 0.009556 0.999954
vn -0.000103 0.009556 0.999954
vn -0.000103 0.009556 0.999954
vn 0.000000 0.999954 -0.009558
vn 0.000000 0.999954 -0.009558
vn 0.000000 0.999954 -0.009558
vn 0.000000 0.999954 -0.009558
vn 0.000103 -0.009556 -0.999954
vn 0.000103 -0.009556 -0.999954
vn 0.000103 -0.009556 -0.999954
vn 0.000103 -0.009556 -0.999954
vn -0.000103 0.009556 0.999954
vn -0.000103 0.009556 0.999954
vn -0.000103 0.009556 0.999954
vn -0.000103 0.009556 0.999954
vn -0.000000 0.999954 -0.009558
vn -0.000000 0.999954 -0.009558
vn -0.000000 0.999954 -0.009558
vn -0.000000 0.999954 -0.009558
vn 0.000103 -0.009539 -0.999955
vn 0.000103 -0.009539 -0.999955
vn 0.000103 -0.009539 -0.999955
vn 0.000103 -0.009539 -0.999955
vn -0.000103 0.009547 0.999955
vn -0.000103 0.009547 0.999955
vn -0.000103 0.009547 0.999955
vn -0.000103 0.009547 0.999955
vn 0.000000 0.999982 0.006030
vn 0.000000 0.999982 0.006030
vn 0.000000 0.999982 0.006030
vn 0.000000 0.999982 0.006030
vn -0.003093 0.006030 -0.999977
vn -0.003093 0.006030 -0.999977
vn -0.003093 0.006030 -0.999977
vn -0.003093 0.006030 -0.999977
vn 0.003093 -0.006030 0.999977
vn 0.003093 -0.006030 0.999977
vn 0.003093 -0.006030 0.999977
vn 0.003093 -0.006030 0.999977
vn 0.000000 -0.006030 0.999982
vn 0.000000 -0.006030 0.999982
vn 0.000000 -0.006030 0.999982
vn 0.000000 -0.006030 0.999982
vn 0.000000 0.999960 -0.008991
vn 0.000000 0.999960 -0.008991
vn 0.000000 0.999960 -0.008991
vn 0.000000 0.999960 -0.008991
vn 0.000000 0.006030 -0.999982
vn 0.000000 0.006030 -0.999982
vn 0.000000 0.006030 -0.999982
vn 0.000000 0.006030 -0.999982
vn 1.000000 0.000000 0.000000
vn 1.000000 0.000000 0.000000
vn 1.000000 0.000000 0.000000
vn 1.000000 0.000000 0.000000
vn -1.000000 0.000000 0.000000
vn -1.000000 0.000000 0.000000
vn -1.000000 0.000000 0.000000
vn -1.000000 0.000000 0.000000
vn 0.000000 0.999982 0.006030
vn 0.000000 0.999982 0.006030
vn 0.000000 0.999982 0.006030
vn 0.000000 0.999982 0.006030
vn 0.000103 0.006030 -0.999982
vn 0.000103 0.006030 -0.999982
vn 0.000103 0.006030 -0.999982
vn 0.000103 0.006030 -0.999982
vn -0.000103 -0.006030 0.999982
vn -0.000103 -0.006030 0.999982
vn -0.000103 -0.006030 0.999982
vn -0.000103 -0.006030 0.999982
vn 0.000000 -0.006030 0.999982
vn 0.000000 -0.006030 0.999982
vn 0.000000 -0.006030 0.999982
vn 0.000000 -0.006030 0.999982
vn 0.000000 0.999960 -0.008991
vn 0.000000 0.999960 -0.008991
vn 0.000000 0.999960 -0.008991
vn 0.000000 0.999960 -0.008991
vn 0.000000 0.006030 -0.999982
vn 0.000000 0.006030 -0.999982
vn 0.000000 0.006030 -0.999982
vn 0.000000 0.006030 -0.999982
vn 1.000000 0.000000 0.000000
vn 1.000000 0.000000 0.000000
vn 1.000000 0.000000 0.000000
vn 1.000000 0.000000 0.000000
vn -1.000000 0.000000 0.000000
vn -1.000000 0.000000 0.000000
vn -1.000000 0.000000 0.000000
vn -1.000000 0.000000 0.000000
vn 0.000000 0.999870 -0.016104
vn 0.000000 0.999870 -0.016104
vn 0.000000 0.999870 -0.016104
vn 0.000000 0.999870 -0.016104
vn 1.000000 -0.000000 -0.000000
vn 1.000000 -0.000000 -0.000000
vn 1.000000 -0.000000 -0.000000
vn 1.000000 -0.000000 -0.000000
vn -1.000000 0.000000 0.000000
vn -1.000000 0.000000 0.000000
vn -1.000000 0.000000 0.000000
vn -1.000000 0.000000 0.000000
vn 0.000000 0.999870 -0.016104
vn 0.000000 0.999870 -0.016104
vn 0.000000 0.999870 -0.016104
vn 0.000000 0.999870 -0.016104
vn 1.000000 -0.000001 -0.000000
vn 1.000000 -0.000001 -0.000000
vn 1.000000 -0.000001 -0.000000
vn 1.000000 -0.000001 -0.000000
vn -1.000000 -0.000001 -0.000000
vn -1.000000 -0.000001 -0.000000
vn -1.000000 -0.000001 -0.000000
vn -1.000000 -0.000001 -0.000000
vn 0.000000 0.999870 -0.016104
vn 0.000000 0.999870 -0.016104
vn 0.000000 0.999870 -0.016104
vn 0.000000 0.999870 -0.016104
vn 1.000000 -0.000000 -0.000000
vn 1.000000 -0.000000 -0.000000
vn 1.000000 -0.000000 -0.000000
vn 1.000000 -0.000000 -0.000000
vn -1.000000 0.000000 0.000000
vn -1.000000 0.000000 0.000000
vn -1.000000 0.000000 0.000000
vn -1.000000 0.000000 0.000000
vn 0.000000 0.999870 -0.016104
vn 0.000000 0.999870 -0.016104
vn 0.000000 0.999870 -0.016104
vn 0.000000 0.999870 -0.016104
vn 1.000000 0.000000 0.000000
vn 1.000000 0.000000 0.000000
vn 1.000000 0.000000 0.000000
vn 1.000000 0.000000 0.000000
vn -1.000000 0.000000 0.000000
vn -1.000000 0.000000 0.000000
vn -1.000000 0.000000 0.000000
vn -1.000000 0.000000 0.000000
vn 0.000000 0.999870 -0.016104
vn 0.000000 0.999870 -0.016104
vn 0.000000 0.999870 -0.016104
vn 0.000000 0.999870 -0.016104
vn 1.000000 -0.000000 -0.000000
vn 1.000000 -0.000000 -0.000000
vn 1.000000 -0.000000 -0.000000
vn 1.000000 -0.000000 -0.000000
vn -1.000000 -0.000000 -0.000000
vn -1.000000 -0.000000 -0.000000
vn -1.000000 -0.000000 -0.000000
vn -1.000000 -0.000000 -0.000000
vn 0.000000 0.999870 -0.016104
vn 0.000000 0.999870 -0.016104
vn 0.000000 0.999870 -0.016104
vn 0.000000 0.999870 -0.016104
vn 1.000000 0.000001 0.000000
vn 1.000000 0.000001 0.000000
vn 1.000000 0.000001 0.000000
vn 1.000000 0.000001 0.000000
vn -1.000000 0.000001 0.000000
vn -1.000000 0.000001 0.000000
vn -1.000000 0.000001 0.000000
vn -1.000000 0.000001 0.000000
s off
g Hatch
usemtl lambert2SG
f 1/1/1 2/2/2 4/3/3 3/4/4
f 7/5/5 8/6/6 10/7/7 9/8/8
f 6/9/9 12/10/10 10/7/11 8/6/12
f 11/11/13 5/12/14 7/5/15 9/8/16
f 15/13/17 16/14/18 18/15/19 17/16/20
f 14/17/21 20/18/22 18/15/23 16/14/24
f 19/19/25 13/20/26 15/13/27 17/16/28
f 23/21/29 24/22/30 26/23/31 25/24/32
f 22/25/33 28/26/34 26/23/35 24/22/36
f 27/27/37 21/28/38 23/21/39 25/24/40
f 31/29/41 32/30/42 34/31/43 33/32/44
f 30/33/45 36/34/46 34/31/47 32/30/48
f 35/35/49 29/36/50 31/29/51 33/32/52
f 39/37/53 40/38/54 42/39/55 41/40/56
f 38/41/57 44/42/58 42/39/59 40/38/60
f 43/43/61 37/44/62 39/37/63 41/40/64
f 47/45/65 48/46/66 50/47/67 49/48/68
f 46/49/69 52/50/70 50/47/71 48/46/72
f 51/51/73 45/52/74 47/45/75 49/48/76
f 55/53/77 56/54/78 58/55/79 57/56/80
f 54/57/81 60/58/82 58/55/83 56/54/84
f 59/59/85 53/60/86 55/53/87 57/56/88
f 63/61/89 64/62/90 66/63/91 65/64/92
f 62/65/93 68/66/94 66/63/95 64/62/96
f 67/67/97 61/68/98 63/61/99 65/64/100
f 71/69/101 72/70/102 74/71/103 73/72/104
f 70/73/105 76/74/106 74/71/107 72/70/108
f 75/75/109 69/76/110 71/69/111 73/72/112
f 79/77/113 80/78/114 82/79/115 81/80/116
f 78/81/117 84/82/118 82/79/119 80/78/120
f 83/83/121 77/84/122 79/77/123 81/80/124
f 85/85/125 86/86/126 88/87/127 87/88/128
f 87/88/129 88/87/130 90/89/131 89/90/132
f 89/90/133 90/89/134 92/91/135 91/92/136
f 86/86/137 92/91/138 90/89/139 88/87/140
f 91/93/141 85/94/142 87/88/143 89/90/144
f 95/95/145 96/96/146 98/97/147 97/98/148
f 94/99/149 100/100/150 98/97/151 96/96/152
f 99/101/153 93/102/154 95/95/155 97/98/156
f 101/103/157 102/104/158 104/105/159 103/106/160
f 103/106/161 104/105/162 106/107/163 105/108/164
f 105/108/165 106/107/166 108/109/167 107/110/168
f 102/111/169 108/112/170 106/107/171 104/105/172
f 107/110/173 101/103/174 103/106/175 105/108/176
f 111/113/177 112/114/178 114/115/179 113/116/180
f 110/117/181 116/118/182 114/115/183 112/114/184
f 115/119/185 109/120/186 111/113/187 113/116/188
f 119/121/189 120/122/190 122/123/191 121/124/192
f 118/125/193 124/126/194 122/123/195 120/122/196
f 123/127/197 117/128/198 119/121/199 121/124/200
f 127/129/201 128/130/202 130/131/203 129/132/204
f 126/133/205 132/134/206 130/131/207 128/130/208
f 131/135/209 125/136/210 127/129/211 129/132/212
f 135/137/213 136/138/214 138/139/215 137/140/216
f 134/141/217 140/142/218 138/139/219 136/138/220
f 139/143/221 133/144/222 135/137/223 137/140/224
f 143/145/225 144/146/226 146/147/227 145/148/228
f 142/149/229 148/150/230 146/147/231 144/146/232
f 147/151/233 141/152/234 143/145/235 145/148/236
f 151/153/237 152/154/238 154/155/239 153/156/240
f 150/157/241 156/158/242 154/155/243 152/154/244
f 155/159/245 149/160/246 151/153/247 153/156/248
