# This file uses meters as units for non-parametric coordinates.

mtllib MSH_Monocular.mtl
g default
v 28.576047 1.017723 -49.167255
v 28.063478 1.660377 -49.156985
v 27.322805 2.017026 -49.151283
v 26.500705 2.017026 -49.151283
v 25.760017 1.660377 -49.156985
v 25.247448 1.017723 -49.167255
v 25.064519 0.216343 -49.180073
v 25.247448 -0.585040 -49.192885
v 25.760017 -1.227694 -49.203156
v 26.500698 -1.584347 -49.208863
v 27.322797 -1.584347 -49.208863
v 28.063478 -1.227694 -49.203156
v 28.576047 -0.585040 -49.192885
v 28.758977 0.216343 -49.180073
v 28.597002 0.749931 -31.786831
v 28.077980 1.400678 -31.776427
v 27.327969 1.761819 -31.770658
v 26.495526 1.761819 -31.770658
v 25.745519 1.400678 -31.776427
v 25.226494 0.749931 -31.786831
v 25.041264 -0.061537 -31.799810
v 25.226494 -0.873009 -31.812779
v 25.745519 -1.523760 -31.823184
v 26.495526 -1.884899 -31.828958
v 27.327969 -1.884899 -31.828958
v 28.077980 -1.523760 -31.823184
v 28.597002 -0.873009 -31.812779
v 28.782238 -0.061537 -31.799810
v 26.911751 0.216343 -49.180073
v 30.871557 1.778369 -31.770388
v 29.694744 3.253863 -31.746803
v 27.994195 4.072700 -31.733711
v 26.106727 4.072700 -31.733711
v 24.406177 3.253863 -31.746803
v 23.229353 1.778373 -31.770388
v 22.809356 -0.061537 -31.799810
v 23.229353 -1.901451 -31.829227
v 24.406177 -3.376943 -31.852813
v 26.106727 -4.195780 -31.865905
v 27.994191 -4.195780 -31.865905
v 29.694744 -3.376943 -31.852813
v 30.871557 -1.901451 -31.829227
v 31.291558 -0.061537 -31.799810
v 30.871557 1.597747 -20.473224
v 29.694744 3.073240 -20.449635
v 27.994195 3.892078 -20.436541
v 26.106727 3.892078 -20.436541
v 24.406177 3.073240 -20.449635
v 23.229353 1.597751 -20.473221
v 22.809356 -0.242159 -20.502640
v 23.229353 -2.082073 -20.532060
v 24.406177 -3.557565 -20.555648
v 26.106727 -4.376403 -20.568740
v 27.994191 -4.376403 -20.568740
v 29.694744 -3.557565 -20.555648
v 30.871557 -2.082073 -20.532060
v 31.291558 -0.242159 -20.502640
v 31.920248 2.102702 -20.465150
v 30.420460 3.983140 -20.435088
v 28.253202 5.026705 -20.418400
v 25.847723 5.026705 -20.418400
v 23.680462 3.983140 -20.435088
v 22.180662 2.102710 -20.465150
v 21.645401 -0.242159 -20.502640
v 22.180662 -2.587032 -20.540131
v 23.680462 -4.467474 -20.570194
v 25.847723 -5.511033 -20.586883
v 28.253194 -5.511033 -20.586883
v 30.420460 -4.467474 -20.570194
v 31.920248 -2.587032 -20.540131
v 32.455517 -0.242159 -20.502640
v 31.920248 1.889615 -7.137431
v 30.420460 3.770053 -7.107366
v 28.253202 4.813618 -7.090681
v 25.847723 4.813618 -7.090681
v 23.680462 3.770053 -7.107366
v 22.180662 1.889623 -7.137431
v 21.645401 -0.455246 -7.174921
v 22.180662 -2.800119 -7.212412
v 23.680462 -4.680561 -7.242479
v 25.847723 -5.724120 -7.259162
v 28.253194 -5.724120 -7.259162
v 30.420460 -4.680561 -7.242479
v 31.920248 -2.800119 -7.212412
v 32.455517 -0.455246 -7.174921
v 30.765544 1.333609 -7.146321
v 29.621375 2.768167 -7.123385
v 27.968008 3.564285 -7.110656
v 26.132914 3.564285 -7.110656
v 24.479539 2.768167 -7.123385
v 23.335370 1.333615 -7.146321
v 22.927024 -0.455246 -7.174921
v 23.335370 -2.244117 -7.203522
v 24.479539 -3.678671 -7.226458
v 26.132906 -4.474789 -7.239187
v 27.968004 -4.474789 -7.239187
v 29.621375 -3.678671 -7.226458
v 30.765544 -2.244117 -7.203522
v 31.173893 -0.455246 -7.174921
v 30.765544 1.350756 -8.218771
v 29.621375 2.785313 -8.195837
v 27.050457 -0.444149 -7.869007
v 27.968008 3.581431 -8.183108
v 26.132914 3.581431 -8.183108
v 24.479539 2.785313 -8.195837
v 23.335370 1.350761 -8.218771
v 22.927024 -0.438100 -8.247371
v 23.335370 -2.226970 -8.275972
v 24.479539 -3.661525 -8.298906
v 26.132906 -4.457642 -8.311637
v 27.968004 -4.457642 -8.311637
v 29.621375 -3.661525 -8.298906
v 30.765544 -2.226970 -8.275972
v 31.173893 -0.438100 -8.247371
vt 0.477264 0.930297
vt 0.476720 0.932331
vt 0.430224 0.925387
vt 0.430884 0.921429
vt 0.476372 0.934373
vt 0.429694 0.929407
vt 0.476219 0.936439
vt 0.429286 0.933448
vt 0.476265 0.938542
vt 0.428992 0.937469
vt 0.476523 0.940696
vt 0.428795 0.941429
vt 0.477010 0.942909
vt 0.428667 0.945284
vt 0.477748 0.945188
vt 0.428978 0.948957
vt 0.478761 0.947553
vt 0.429349 0.952381
vt 0.480076 0.950006
vt 0.435085 0.903875
vt 0.481638 0.922084
vt 0.434016 0.906838
vt 0.480182 0.924163
vt 0.433109 0.910187
vt 0.478980 0.926217
vt 0.432328 0.913792
vt 0.478013 0.928259
vt 0.431688 0.917578
vt 0.483327 0.935156
vt 0.421581 0.923622
vt 0.422168 0.918758
vt 0.421169 0.928469
vt 0.420901 0.933319
vt 0.420750 0.938195
vt 0.420710 0.943130
vt 0.420820 0.948184
vt 0.421065 0.953491
vt 0.421736 0.959174
vt 0.430272 0.893285
vt 0.427601 0.898801
vt 0.425616 0.903959
vt 0.424114 0.908948
vt 0.422950 0.913856
vt 0.390777 0.918552
vt 0.391605 0.911677
vt 0.390098 0.925412
vt 0.389556 0.932284
vt 0.389138 0.939198
vt 0.388840 0.946183
vt 0.388673 0.953256
vt 0.388647 0.960397
vt 0.388828 0.967515
vt 0.398722 0.877324
vt 0.396653 0.883890
vt 0.395075 0.890821
vt 0.393741 0.897812
vt 0.392591 0.904769
vt 0.386951 0.917913
vt 0.387788 0.910895
vt 0.509923 0.894501
vt 0.386257 0.924913
vt 0.385698 0.931924
vt 0.385261 0.938980
vt 0.384935 0.946117
vt 0.384706 0.953376
vt 0.384557 0.960814
vt 0.384498 0.968553
vt 0.394857 0.874116
vt 0.392763 0.881889
vt 0.391209 0.889385
vt 0.389906 0.896674
vt 0.388772 0.903828
vt 0.350300 0.914058
vt 0.351100 0.906511
vt 0.349594 0.921584
vt 0.348983 0.929105
vt 0.348451 0.936636
vt 0.347961 0.944196
vt 0.347451 0.951804
vt 0.346812 0.959492
vt 0.345856 0.967299
vt 0.354633 0.867031
vt 0.354474 0.875472
vt 0.353770 0.883476
vt 0.352894 0.891261
vt 0.351979 0.898922
vt 0.345971 0.913544
vt 0.346770 0.905989
vt 0.345264 0.921085
vt 0.344651 0.928618
vt 0.344117 0.936147
vt 0.343628 0.943674
vt 0.343127 0.951189
vt 0.342513 0.958661
vt 0.341612 0.965974
vt 0.349746 0.868811
vt 0.349931 0.875766
vt 0.349375 0.883248
vt 0.348544 0.890831
vt 0.347644 0.898418
vt 0.342960 0.913290
vt 0.343759 0.905732
vt 0.342253 0.920841
vt 0.341639 0.928381
vt 0.341105 0.935907
vt 0.340620 0.943408
vt 0.340128 0.950859
vt 0.339531 0.958193
vt 0.338635 0.965248
vt 0.346692 0.869136
vt 0.346878 0.875916
vt 0.346345 0.883172
vt 0.345526 0.890637
vt 0.344631 0.898175
vt 0.517904 0.904579
vt 0.512741 0.907044
vt 0.507020 0.907024
vt 0.501874 0.904525
vt 0.498322 0.900039
vt 0.497067 0.894457
vt 0.498359 0.888884
vt 0.501942 0.884423
vt 0.507105 0.881958
vt 0.512826 0.881977
vt 0.517972 0.884477
vt 0.521524 0.888962
vt 0.522778 0.894544
vt 0.521486 0.900118
vt 0.340058 0.972649
vt 0.337098 0.971796
vt 0.344233 0.975250
vt 0.384800 0.976866
vt 0.389429 0.974349
vt 0.423128 0.965402
vt 0.429815 0.955462
vt 0.483372 0.919967
vn 0.899993 0.434103 -0.039601
vn 0.622815 0.781628 -0.034045
vn 0.602403 0.759413 -0.245770
vn 0.869577 0.422897 -0.254939
vn 0.222281 0.974491 -0.030961
vn 0.215317 0.947275 -0.237295
vn -0.222280 0.974491 -0.030962
vn -0.215664 0.948700 -0.231207
vn -0.622812 0.781630 -0.034045
vn -0.605128 0.762563 -0.228731
vn -0.899993 0.434102 -0.039601
vn -0.875271 0.425246 -0.230361
vn -0.998917 0.000744 -0.046530
vn -0.971806 0.003770 -0.235754
vn -0.899994 -0.432612 -0.053459
vn -0.875272 -0.417663 -0.243837
vn -0.622815 -0.780140 -0.059015
vn -0.605129 -0.754860 -0.252992
vn -0.222281 -0.973003 -0.062099
vn -0.215665 -0.940824 -0.261418
vn 0.222281 -0.973003 -0.062099
vn 0.215317 -0.939205 -0.267456
vn 0.622815 -0.780140 -0.059015
vn 0.602402 -0.751169 -0.269922
vn 0.899993 -0.432613 -0.053459
vn 0.869577 -0.414530 -0.268328
vn 0.998917 0.000744 -0.046530
vn 0.964791 0.004205 -0.262985
vn 0.000000 0.015986 -0.999872
vn -0.412446 -0.212810 0.885776
vn -0.285422 -0.372073 0.883230
vn -0.000000 -0.015986 0.999872
vn -0.101866 -0.460460 0.881816
vn 0.101866 -0.460460 0.881816
vn 0.285421 -0.372074 0.883230
vn 0.412447 -0.212811 0.885776
vn 0.457780 -0.014213 0.888952
vn 0.412446 0.184385 0.892127
vn 0.285421 0.343648 0.894674
vn 0.101866 0.432032 0.896087
vn -0.101866 0.432032 0.896087
vn -0.285421 0.343648 0.894674
vn -0.412446 0.184384 0.892127
vn -0.457781 -0.014213 0.888952
vn 0.617939 0.776899 -0.120750
vn 0.892700 0.432007 -0.128281
vn 0.220627 0.968585 -0.114749
vn -0.220721 0.968948 -0.111453
vn -0.618681 0.777687 -0.111519
vn -0.894255 0.432545 -0.114948
vn -0.992640 0.001936 -0.121084
vn -0.894255 -0.428648 -0.128717
vn -0.618682 -0.773724 -0.136323
vn -0.220722 -0.964890 -0.142372
vn 0.220626 -0.964422 -0.145654
vn 0.617938 -0.772642 -0.145524
vn 0.892701 -0.427685 -0.142027
vn 0.990724 0.002172 -0.135871
vn 0.617976 0.776938 -0.120301
vn 0.893001 0.432112 -0.125815
vn 0.220553 0.968303 -0.117241
vn -0.220553 0.968303 -0.117241
vn -0.617974 0.776940 -0.120301
vn -0.893000 0.432114 -0.125815
vn -0.991155 0.002122 -0.132689
vn -0.893000 -0.427870 -0.139565
vn -0.617974 -0.772697 -0.145078
vn -0.220553 -0.964060 -0.148137
vn 0.220553 -0.964060 -0.148137
vn 0.617975 -0.772696 -0.145078
vn 0.893001 -0.427869 -0.139564
vn 0.991155 0.002122 -0.132690
vn 0.622104 0.781059 -0.054161
vn 0.898966 0.433929 -0.059711
vn 0.222027 0.973702 -0.051081
vn -0.222026 0.973702 -0.051081
vn -0.622102 0.781061 -0.054161
vn -0.898966 0.433930 -0.059711
vn -0.997777 0.001065 -0.066632
vn -0.898966 -0.431798 -0.073552
vn -0.622103 -0.778929 -0.079103
vn -0.222025 -0.971571 -0.082183
vn 0.222025 -0.971571 -0.082183
vn 0.622103 -0.778929 -0.079103
vn 0.898967 -0.431797 -0.073553
vn 0.997777 0.001065 -0.066632
vn 0.621852 0.778518 0.084909
vn 0.898601 0.431530 0.079361
vn 0.221936 0.971083 0.087988
vn -0.221936 0.971083 0.087988
vn -0.621849 0.778520 0.084909
vn -0.898601 0.431531 0.079361
vn -0.997372 -0.001158 0.072444
vn -0.898601 -0.433846 0.065525
vn -0.621850 -0.780836 0.059978
vn -0.221935 -0.973400 0.056899
vn 0.221935 -0.973400 0.056899
vn 0.621851 -0.780836 0.059978
vn 0.898602 -0.433845 0.065525
vn 0.997372 -0.001158 0.072443
vn -0.333771 -0.431984 0.837846
vn -0.482313 -0.245743 0.840824
vn -0.119121 -0.535341 0.836194
vn 0.119121 -0.535342 0.836193
vn 0.333770 -0.431986 0.837846
vn 0.482312 -0.245742 0.840825
vn 0.535327 -0.013503 0.844537
vn 0.482312 0.218735 0.848251
vn 0.333770 0.404978 0.851229
vn 0.119121 0.508336 0.852880
vn -0.119121 0.508335 0.852881
vn -0.333769 0.404978 0.851229
vn -0.482312 0.218736 0.848251
vn -0.535327 -0.013503 0.844537
s 1
g pCylinder1
usemtl lambert2SG
f 1/1/1 2/2/2 16/3/3 15/4/4
f 2/2/2 3/5/5 17/6/6 16/3/3
f 3/5/5 4/7/7 18/8/8 17/6/6
f 4/7/7 5/9/9 19/10/10 18/8/8
f 5/9/9 6/11/11 20/12/12 19/10/10
f 6/11/11 7/13/13 21/14/14 20/12/12
f 7/13/13 8/15/15 22/16/16 21/14/14
f 8/15/15 9/17/17 23/18/18 22/16/16
f 9/17/17 10/19/19 24/135/20 23/18/18
f 10/136/19 11/21/21 25/22/22 24/20/20
f 11/21/21 12/23/23 26/24/24 25/22/22
f 12/23/23 13/25/25 27/26/26 26/24/24
f 13/25/25 14/27/27 28/28/28 27/26/26
f 14/27/27 1/1/1 15/4/4 28/28/28
f 2/2/2 1/1/1 29/29/29
f 3/5/5 2/2/2 29/29/29
f 4/7/7 3/5/5 29/29/29
f 5/9/9 4/7/7 29/29/29
f 6/11/11 5/9/9 29/29/29
f 7/13/13 6/11/11 29/29/29
f 8/15/15 7/13/13 29/29/29
f 9/17/17 8/15/15 29/29/29
f 10/19/19 9/17/17 29/29/29
f 11/21/21 10/136/19 29/29/29
f 12/23/23 11/21/21 29/29/29
f 13/25/25 12/23/23 29/29/29
f 14/27/27 13/25/25 29/29/29
f 1/1/1 14/27/27 29/29/29
f 100/128/30 101/115/31 102/60/32
f 101/115/31 103/116/33 102/60/32
f 103/116/33 104/117/34 102/60/32
f 104/117/34 105/118/35 102/60/32
f 105/118/35 106/119/36 102/60/32
f 106/119/36 107/120/37 102/60/32
f 107/120/37 108/121/38 102/60/32
f 108/121/38 109/122/39 102/60/32
f 109/122/39 110/123/40 102/60/32
f 110/123/40 111/124/41 102/60/32
f 111/124/41 112/125/42 102/60/32
f 112/125/42 113/126/43 102/60/32
f 113/126/43 114/127/44 102/60/32
f 114/127/44 100/128/30 102/60/32
f 15/4/4 16/3/3 31/30/45 30/31/46
f 16/3/3 17/6/6 32/32/47 31/30/45
f 17/6/6 18/8/8 33/33/48 32/32/47
f 18/8/8 19/10/10 34/34/49 33/33/48
f 19/10/10 20/12/12 35/35/50 34/34/49
f 20/12/12 21/14/14 36/36/51 35/35/50
f 21/14/14 22/16/16 37/37/52 36/36/51
f 22/16/16 23/18/18 38/38/53 37/37/52
f 23/18/18 24/135/20 39/134/54 38/38/53
f 24/20/20 25/22/22 40/40/55 39/39/54
f 25/22/22 26/24/24 41/41/56 40/40/55
f 26/24/24 27/26/26 42/42/57 41/41/56
f 27/26/26 28/28/28 43/43/58 42/42/57
f 28/28/28 15/4/4 30/31/46 43/43/58
f 30/31/46 31/30/45 45/44/59 44/45/60
f 31/30/45 32/32/47 46/46/61 45/44/59
f 32/32/47 33/33/48 47/47/62 46/46/61
f 33/33/48 34/34/49 48/48/63 47/47/62
f 34/34/49 35/35/50 49/49/64 48/48/63
f 35/35/50 36/36/51 50/50/65 49/49/64
f 36/36/51 37/37/52 51/51/66 50/50/65
f 37/37/52 38/38/53 52/52/67 51/51/66
f 38/38/53 39/134/54 53/133/68 52/52/67
f 39/39/54 40/40/55 54/54/69 53/53/68
f 40/40/55 41/41/56 55/55/70 54/54/69
f 41/41/56 42/42/57 56/56/71 55/55/70
f 42/42/57 43/43/58 57/57/72 56/56/71
f 43/43/58 30/31/46 44/45/60 57/57/72
f 44/45/60 45/44/59 59/58/73 58/59/74
f 45/44/59 46/46/61 60/61/75 59/58/73
f 46/46/61 47/47/62 61/62/76 60/61/75
f 47/47/62 48/48/63 62/63/77 61/62/76
f 48/48/63 49/49/64 63/64/78 62/63/77
f 49/49/64 50/50/65 64/65/79 63/64/78
f 50/50/65 51/51/66 65/66/80 64/65/79
f 51/51/66 52/52/67 66/67/81 65/66/80
f 52/52/67 53/133/68 67/132/82 66/67/81
f 53/53/68 54/54/69 68/69/83 67/68/82
f 54/54/69 55/55/70 69/70/84 68/69/83
f 55/55/70 56/56/71 70/71/85 69/70/84
f 56/56/71 57/57/72 71/72/86 70/71/85
f 57/57/72 44/45/60 58/59/74 71/72/86
f 58/59/74 59/58/73 73/73/87 72/74/88
f 59/58/73 60/61/75 74/75/89 73/73/87
f 60/61/75 61/62/76 75/76/90 74/75/89
f 61/62/76 62/63/77 76/77/91 75/76/90
f 62/63/77 63/64/78 77/78/92 76/77/91
f 63/64/78 64/65/79 78/79/93 77/78/92
f 64/65/79 65/66/80 79/80/94 78/79/93
f 65/66/80 66/67/81 80/81/95 79/80/94
f 66/67/81 67/132/82 81/131/96 80/81/95
f 67/68/82 68/69/83 82/83/97 81/82/96
f 68/69/83 69/70/84 83/84/98 82/83/97
f 69/70/84 70/71/85 84/85/99 83/84/98
f 70/71/85 71/72/86 85/86/100 84/85/99
f 71/72/86 58/59/74 72/74/88 85/86/100
f 72/74/88 73/73/87 87/87/101 86/88/102
f 73/73/87 74/75/89 88/89/103 87/87/101
f 74/75/89 75/76/90 89/90/104 88/89/103
f 75/76/90 76/77/91 90/91/105 89/90/104
f 76/77/91 77/78/92 91/92/106 90/91/105
f 77/78/92 78/79/93 92/93/107 91/92/106
f 78/79/93 79/80/94 93/94/108 92/93/107
f 79/80/94 80/81/95 94/95/109 93/94/108
f 80/81/95 81/131/96 95/129/110 94/95/109
f 81/82/96 82/83/97 96/97/111 95/96/110
f 82/83/97 83/84/98 97/98/112 96/97/111
f 83/84/98 84/85/99 98/99/113 97/98/112
f 84/85/99 85/86/100 99/100/114 98/99/113
f 85/86/100 72/74/88 86/88/102 99/100/114
f 86/88/102 87/87/101 101/101/31 100/102/30
f 87/87/101 88/89/103 103/103/33 101/101/31
f 88/89/103 89/90/104 104/104/34 103/103/33
f 89/90/104 90/91/105 105/105/35 104/104/34
f 90/91/105 91/92/106 106/106/36 105/105/35
f 91/92/106 92/93/107 107/107/37 106/106/36
f 92/93/107 93/94/108 108/108/38 107/107/37
f 93/94/108 94/95/109 109/109/39 108/108/38
f 94/95/109 95/129/110 110/130/40 109/109/39
f 95/96/110 96/97/111 111/111/41 110/110/40
f 96/97/111 97/98/112 112/112/42 111/111/41
f 97/98/112 98/99/113 113/113/43 112/112/42
f 98/99/113 99/100/114 114/114/44 113/113/43
f 99/100/114 86/88/102 100/102/30 114/114/44
