# This file uses meters as units for non-parametric coordinates.

mtllib MSH_Matchbox.mtl
g default
v -7.391707 -2.024323 4.826337
v 7.391707 -2.024323 4.826337
v -7.391707 2.024323 4.826337
v 7.391707 2.024323 4.826337
v -7.391707 2.024323 -4.826337
v 7.391707 2.024323 -4.826337
v -7.391707 -2.024323 -4.826337
v 7.391707 -2.024323 -4.826337
vt 0.025124 0.732459
vt 0.025124 0.688201
vt 0.037263 0.688201
vt 0.037263 0.732459
vt 0.064237 0.688201
vt 0.064237 0.732459
vt 0.076436 0.688201
vt 0.076436 0.732459
vt 0.104063 0.688201
vt 0.104063 0.732459
vt 0.025124 0.661252
vt 0.037263 0.661252
vt 0.025124 0.759408
vt 0.037263 0.759408
vn 0.000000 0.000000 1.000000
vn 0.000000 0.000000 1.000000
vn 0.000000 0.000000 1.000000
vn 0.000000 0.000000 1.000000
vn 0.000000 1.000000 0.000000
vn 0.000000 1.000000 0.000000
vn 0.000000 1.000000 0.000000
vn 0.000000 1.000000 0.000000
vn 0.000000 0.000000 -1.000000
vn 0.000000 0.000000 -1.000000
vn 0.000000 0.000000 -1.000000
vn 0.000000 0.000000 -1.000000
vn 0.000000 -1.000000 0.000000
vn 0.000000 -1.000000 0.000000
vn 0.000000 -1.000000 0.000000
vn 0.000000 -1.000000 0.000000
vn 1.000000 0.000000 0.000000
vn 1.000000 0.000000 0.000000
vn 1.000000 0.000000 0.000000
vn 1.000000 0.000000 0.000000
vn -1.000000 0.000000 0.000000
vn -1.000000 0.000000 0.000000
vn -1.000000 0.000000 0.000000
vn -1.000000 0.000000 0.000000
s off
g MSH_Matchbox:MSH_Matchbox
usemtl initialShadingGroup
f 1/1/1 2/2/2 4/3/3 3/4/4
f 3/4/5 4/3/6 6/5/7 5/6/8
f 5/6/9 6/5/10 8/7/11 7/8/12
f 7/8/13 8/7/14 2/9/15 1/10/16
f 2/2/17 8/11/18 6/12/19 4/3/20
f 7/13/21 1/1/22 3/4/23 5/14/24
