# This file uses meters as units for non-parametric coordinates.

mtllib MSH_mosshang1.mtl
g default
v -94.296616 15.224430 0.000000
v -22.509373 15.224430 0.000000
v -94.296616 82.019379 0.000000
v -22.509373 82.019379 0.000000
v -94.296616 88.208168 -5.646895
v -22.509373 88.208168 -5.646895
v -94.296616 88.372528 -20.247456
v -22.509373 88.372528 -20.247456
vt 0.027996 0.025218
vt 0.268108 0.024958
vt 0.028161 0.214201
vt 0.268274 0.213941
vt 0.028185 0.241540
vt 0.268298 0.241280
vt 0.028233 0.295829
vt 0.268345 0.295569
vn 0.000000 0.000000 1.000000
vn 0.000000 0.000000 1.000000
vn 0.000000 0.077141 0.997020
vn 0.000000 0.077141 0.997020
vn 0.000000 0.954133 0.299383
vn 0.000000 0.954133 0.299383
vn 0.000000 0.999937 0.011256
vn 0.000000 0.999937 0.011256
s 1
g pPlane1
usemtl lambert2SG
f 1/1/1 2/2/2 4/4/3 3/3/4
f 3/3/4 4/4/3 6/6/5 5/5/6
f 5/5/6 6/6/5 8/8/7 7/7/8
