# This file uses meters as units for non-parametric coordinates.

mtllib MSH_seaweed.mtl
g default
v 144.709650 3.384590 17.370017
v 182.126287 2.465421 16.176568
v 276.067056 0.157560 16.176568
v 148.134167 142.779488 16.176568
v 185.550777 141.860267 24.627393
v 279.491582 139.552351 16.176568
v 151.558707 282.174332 16.176568
v 188.975318 281.255111 19.337792
v 282.916174 278.947247 9.452380
v 240.554446 279.987956 20.662308
v 237.129904 140.593059 24.627391
v 233.705415 1.198267 16.176568
vt 0.560639 0.118212
vt 0.680471 0.120229
vt 0.688587 0.559171
vt 0.564348 0.563659
vt 0.846763 0.123029
vt 0.982382 0.125312
vt 0.990703 0.558264
vt 0.851404 0.555643
vt 0.691770 0.991827
vt 0.571292 0.995373
vt 1.001922 0.994651
vt 0.858257 0.994366
vn -0.097073 -0.023517 0.994999
vn -0.041696 -0.045008 0.998116
vn -0.056167 -0.008046 0.998389
vn -0.125158 -0.000377 0.992137
vn 0.043707 -0.047931 0.997894
vn 0.098409 -0.032567 0.994613
vn 0.164359 0.000288 0.986401
vn 0.070277 -0.007409 0.997500
vn -0.072091 0.028871 0.996980
vn -0.152759 0.022499 0.988007
vn 0.226677 0.031755 0.973452
vn 0.098774 0.032916 0.994565
s 1
g Seaweed
usemtl initialShadingGroup
f 1/1/1 2/2/2 5/3/3 4/4/4
f 12/5/5 3/6/6 6/7/7 11/8/8
f 4/4/4 5/3/3 8/9/9 7/10/10
f 11/8/8 6/7/7 9/11/11 10/12/12
f 5/3/3 11/8/8 10/12/12 8/9/9
f 2/2/2 12/5/5 11/8/8 5/3/3
