# This file uses centimeters as units for non-parametric coordinates.

mtllib MSH_Anvil.mtl
g default
v -2.356086 0.006259 1.592570
v -1.361464 0.006259 1.592570
v -2.356086 3.184335 1.223192
v -0.730461 3.184335 1.223192
v -2.356086 3.184335 -1.223141
v -0.730461 3.184335 -1.223141
v -2.356086 0.006259 -1.592519
v -1.361464 0.006259 -1.592519
v -2.204369 2.420968 1.223192
v -0.730461 2.420968 1.223192
v -0.730461 2.420968 -1.223141
v -2.204369 2.420968 -1.223141
v -2.204369 1.181871 1.223192
v -1.361464 1.353145 1.223192
v -1.361464 1.353145 -1.223141
v -2.204369 1.181871 -1.223141
v -0.013511 2.420968 1.223192
v -0.013511 2.420968 -1.223141
v -0.013512 3.184336 -1.223141
v -0.013512 3.184336 1.223192
v -3.433271 0.006259 -1.592519
v -3.433271 0.006259 1.592570
v -3.130559 0.925703 1.223192
v -3.130559 0.925703 -1.223141
v 2.325808 0.006259 -1.592519
v 1.331185 0.006259 -1.592519
v 2.325808 3.184335 -1.223141
v 0.700183 3.184335 -1.223141
v 2.325808 3.184335 1.223192
v 0.700183 3.184335 1.223192
v 2.325808 0.006259 1.592570
v 1.331185 0.006259 1.592570
v 2.174091 2.420968 -1.223141
v 0.700183 2.420968 -1.223141
v 0.700183 2.420968 1.223192
v 2.174091 2.420968 1.223192
v 2.174091 1.181871 -1.223141
v 1.331185 1.353145 -1.223141
v 1.331185 1.353145 1.223192
v 2.174091 1.181871 1.223192
v -0.016767 2.420968 -1.223141
v -0.016767 2.420968 1.223192
v -0.016767 3.184336 1.223192
v -0.016767 3.184336 -1.223141
v 3.402993 0.006259 1.592570
v 3.402993 0.006259 -1.592519
v 3.100281 0.925703 -1.223141
v 3.100281 0.925703 1.223192
v -2.416851 3.173974 1.477430
v 5.872472 4.982150 0.448708
v -2.416851 5.697257 1.477430
v 5.872472 5.748493 0.448708
v -2.416851 5.697257 -1.477430
v 5.872472 5.748493 -0.448708
v -2.416851 3.173974 -1.477430
v 5.872472 4.982150 -0.448708
v 2.375644 3.173974 1.477430
v 2.375644 3.173974 -1.477430
v 2.375644 5.697257 -1.477430
v 2.375644 5.697257 1.477430
v -2.371496 5.615176 -0.387717
v -2.371496 5.436971 -0.737465
v -2.371496 5.159409 -1.015027
v -2.371496 4.809660 -1.193233
v -2.371496 4.421961 -1.254638
v -2.371496 4.034263 -1.193233
v -2.371496 3.684515 -1.015027
v -2.371496 3.406953 -0.737465
v -2.371496 3.228747 -0.387717
v -2.371496 3.167341 -0.000018
v -2.371496 3.228747 0.387681
v -2.371496 3.406953 0.737429
v -2.371496 3.684515 1.014991
v -2.371496 4.034263 1.193196
v -2.371496 4.421961 1.254602
v -2.371496 4.809660 1.193196
v -2.371496 5.159408 1.014991
v -2.371496 5.436970 0.737429
v -2.371496 5.615176 0.387681
v -2.371496 5.676581 -0.000018
v -5.797481 5.240244 -0.060847
v -5.797481 5.212284 -0.115721
v -5.797481 5.168736 -0.159269
v -5.797481 5.113861 -0.187230
v -5.797481 5.053032 -0.196864
v -5.797481 4.992204 -0.187230
v -5.797481 4.937329 -0.159269
v -5.797481 4.893781 -0.115721
v -5.797481 4.865820 -0.060847
v -5.797481 4.856186 -0.000018
v -5.797481 4.865820 0.060811
v -5.797481 4.893781 0.115685
v -5.797481 4.937329 0.159233
v -5.797481 4.992203 0.187193
v -5.797481 5.053032 0.196828
v -5.797481 5.113861 0.187193
v -5.797481 5.168736 0.159233
v -5.797481 5.212284 0.115685
v -5.797481 5.240244 0.060811
v -5.797481 5.249878 -0.000018
v -5.797481 5.053032 -0.000018
vt 0.658876 0.180531
vt 0.841314 0.144844
vt 0.626315 0.384735
vt 0.791318 0.180531
vt 0.700635 0.384735
vt 0.700635 0.423227
vt 0.618665 0.423227
vt 0.619118 0.423227
vt 0.975201 0.144844
vt 0.975924 0.184505
vt 0.701089 0.423227
vt 0.701089 0.384735
vt 0.791318 0.221859
vt 0.658876 0.221859
vt 0.840591 0.184506
vt 0.842037 0.087033
vt 0.974478 0.087033
vt 0.792040 0.113447
vt 0.626768 0.384735
vt 0.626315 0.322256
vt 0.658153 0.113448
vt 0.668818 0.330892
vt 0.669271 0.330892
vt 0.626768 0.322256
vt 0.658153 0.062210
vt 0.792040 0.062210
vt 0.618665 0.262977
vt 0.668818 0.262977
vt 0.669271 0.262977
vt 0.619118 0.262977
vt 0.737240 0.423227
vt 0.737240 0.384736
vt 0.736787 0.384736
vt 0.736787 0.423227
vt 0.579614 0.309339
vt 0.564350 0.262977
vt 0.564803 0.262977
vt 0.580066 0.309339
vt 0.822039 0.014114
vt 0.994476 0.014114
vt 0.638877 0.012433
vt 0.811315 0.012433
vt 0.626315 0.384735
vt 0.700635 0.384735
vt 0.700635 0.423227
vt 0.618665 0.423227
vt 0.619118 0.423227
vt 0.701089 0.423227
vt 0.701089 0.384735
vt 0.626768 0.384735
vt 0.658876 0.180531
vt 0.791318 0.180531
vt 0.791318 0.221859
vt 0.658876 0.221859
vt 0.626315 0.322256
vt 0.668818 0.330892
vt 0.842037 0.087033
vt 0.974478 0.087033
vt 0.975201 0.144844
vt 0.841314 0.144844
vt 0.669271 0.330892
vt 0.626768 0.322256
vt 0.658153 0.113448
vt 0.792040 0.113447
vt 0.618665 0.262977
vt 0.668818 0.262977
vt 0.822039 0.014114
vt 0.994476 0.014114
vt 0.669271 0.262977
vt 0.619118 0.262977
vt 0.638877 0.012433
vt 0.811315 0.012433
vt 0.792040 0.062210
vt 0.658153 0.062210
vt 0.975924 0.184505
vt 0.840591 0.184506
vt 0.737240 0.423227
vt 0.737240 0.384736
vt 0.736787 0.384736
vt 0.736787 0.423227
vt 0.579614 0.309339
vt 0.564350 0.262977
vt 0.564803 0.262977
vt 0.580066 0.309339
vt 0.775902 0.571945
vt 0.775902 0.448175
vt 0.947426 0.536869
vt 0.947426 0.574459
vt 0.775902 0.716885
vt 0.947426 0.622107
vt 0.947427 0.666722
vt 0.775903 0.840655
vt 0.947427 0.714370
vt 0.947427 0.751960
vt 0.775904 0.985595
vt 0.947428 0.891114
vt 0.947428 0.935133
vt 0.986035 0.622055
vt 0.986035 0.666773
vt 0.417496 0.716627
vt 0.417496 0.572205
vt 0.540824 0.572075
vt 0.540824 0.716756
vt 0.540825 0.840657
vt 0.540826 0.985597
vt 0.540824 0.448175
vt 0.846409 0.433837
vt 0.829767 0.424446
vt 0.931697 0.288576
vt 0.934308 0.290049
vt 0.813608 0.414246
vt 0.929162 0.286976
vt 0.798107 0.403072
vt 0.926730 0.285223
vt 0.783504 0.390748
vt 0.924439 0.283289
vt 0.770099 0.377130
vt 0.922336 0.281152
vt 0.758232 0.362153
vt 0.920474 0.278803
vt 0.748251 0.345859
vt 0.918908 0.276246
vt 0.740472 0.328405
vt 0.917687 0.273508
vt 0.735138 0.310056
vt 0.916850 0.270629
vt 0.732388 0.291147
vt 0.916419 0.267662
vt 0.732234 0.272039
vt 0.916395 0.264664
vt 0.734564 0.253073
vt 0.916761 0.261688
vt 0.991580 0.475731
vt 0.972472 0.475631
vt 0.954087 0.296607
vt 0.957085 0.296623
vt 0.953484 0.473483
vt 0.951108 0.296270
vt 0.934776 0.469593
vt 0.948173 0.295660
vt 0.916419 0.464287
vt 0.945293 0.294827
vt 0.898422 0.457863
vt 0.942469 0.293819
vt 0.880765 0.450559
vt 0.939699 0.292673
vt 0.863425 0.442530
vt 0.936978 0.291413
vt 0.980519 0.259492
vt 0.977993 0.264450
vt 0.963605 0.253285
vt 0.974059 0.268385
vt 0.969101 0.270911
vt 0.963605 0.271781
vt 0.958109 0.270911
vt 0.953151 0.268385
vt 0.949216 0.264450
vt 0.946690 0.259492
vt 0.945819 0.253996
vt 0.946690 0.248500
vt 0.949216 0.243542
vt 0.953151 0.239608
vt 0.958109 0.237081
vt 0.963605 0.236211
vt 0.969101 0.237081
vt 0.974058 0.239608
vt 0.977993 0.243542
vt 0.980519 0.248500
vt 0.981390 0.253996
vn 0.000000 0.000000 1.000000
vn 0.000000 0.000000 1.000000
vn 0.000000 0.000000 1.000000
vn 0.000000 0.000000 1.000000
vn 0.000000 0.000000 -1.000000
vn 0.000000 0.000000 -1.000000
vn -0.000000 0.000000 -1.000000
vn -0.000000 0.000000 -1.000000
vn -0.997142 -0.075549 0.000000
vn -0.997142 -0.075549 0.000000
vn -0.980816 -0.194934 0.000000
vn -0.980816 -0.194934 0.000000
vn -0.021909 0.204087 0.978708
vn -0.009414 0.100999 0.994842
vn 0.976864 -0.213863 0.000000
vn 0.976864 -0.213863 0.000000
vn 0.860920 -0.508740 0.000000
vn 0.860920 -0.508740 0.000000
vn -0.009414 0.100999 -0.994842
vn -0.021910 0.204087 -0.978708
vn -1.000000 0.000000 0.000000
vn -1.000000 0.000000 0.000000
vn -0.035196 0.312486 0.949270
vn -0.026324 0.282422 0.958929
vn 1.000000 0.000000 0.000000
vn 1.000000 0.000000 0.000000
vn -0.026324 0.282422 -0.958929
vn -0.035196 0.312487 -0.949270
vn -0.949845 0.312721 0.000000
vn -0.949845 0.312721 0.000000
vn -0.949845 0.312721 0.000000
vn -0.949845 0.312721 0.000000
vn 0.000000 -1.000000 0.000000
vn 0.000000 -1.000000 0.000000
vn 0.000000 -1.000000 0.000000
vn 0.000000 -1.000000 0.000000
vn 0.000000 0.000000 -1.000000
vn 0.000000 0.000000 -1.000000
vn 0.000000 0.000000 1.000000
vn 0.000000 0.000000 1.000000
vn -0.043555 0.340623 0.939190
vn -0.043555 0.340623 0.939191
vn -0.266574 0.963814 0.000000
vn -0.266574 0.963814 0.000000
vn -0.266574 0.963814 0.000000
vn -0.266574 0.963814 0.000000
vn -0.043555 0.340624 -0.939190
vn -0.043555 0.340624 -0.939190
vn 0.000000 0.000000 -1.000000
vn 0.000000 0.000000 -1.000000
vn -0.000000 0.000000 -1.000000
vn 0.000000 0.000000 -1.000000
vn 0.000000 0.000000 1.000000
vn 0.000000 0.000000 1.000000
vn 0.000000 0.000000 1.000000
vn 0.000000 0.000000 1.000000
vn 0.997142 -0.075549 0.000000
vn 0.997142 -0.075549 0.000000
vn 0.980816 -0.194935 0.000000
vn 0.980816 -0.194935 0.000000
vn 0.021909 0.204087 -0.978708
vn 0.009414 0.100999 -0.994842
vn -0.976864 -0.213862 0.000000
vn -0.976864 -0.213862 0.000000
vn -0.860920 -0.508740 0.000000
vn -0.860920 -0.508740 0.000000
vn 0.009414 0.100999 0.994842
vn 0.021909 0.204087 0.978708
vn 1.000000 0.000000 0.000000
vn 1.000000 0.000000 0.000000
vn 0.035196 0.312486 -0.949270
vn 0.026324 0.282422 -0.958929
vn -1.000000 0.000000 0.000000
vn -1.000000 0.000000 0.000000
vn 0.026324 0.282422 0.958929
vn 0.035196 0.312487 0.949270
vn 0.949845 0.312721 0.000000
vn 0.949845 0.312721 0.000000
vn 0.949845 0.312721 0.000000
vn 0.949845 0.312721 0.000000
vn 0.000000 -1.000000 0.000000
vn 0.000000 -1.000000 0.000000
vn 0.000000 -1.000000 0.000000
vn 0.000000 -1.000000 0.000000
vn 0.000000 0.000000 1.000000
vn 0.000000 0.000000 1.000000
vn -0.000000 0.000000 -1.000000
vn -0.000000 0.000000 -1.000000
vn 0.043555 0.340624 -0.939190
vn 0.043555 0.340624 -0.939190
vn 0.266574 0.963814 0.000000
vn 0.266574 0.963814 0.000000
vn 0.266574 0.963814 0.000000
vn 0.266574 0.963814 0.000000
vn 0.043555 0.340624 0.939190
vn 0.043555 0.340624 0.939190
vn 0.094965 0.000000 0.995481
vn 0.073816 0.000000 0.997272
vn 0.282228 0.000000 0.959348
vn 0.282228 0.000000 0.959347
vn -0.004103 0.999992 0.000000
vn -0.004103 0.999992 0.000000
vn -0.014651 0.999893 0.000000
vn -0.014651 0.999893 0.000000
vn 0.073816 0.000000 -0.997272
vn 0.094965 0.000000 -0.995481
vn 0.282228 0.000000 -0.959347
vn 0.282228 0.000000 -0.959348
vn 0.145701 -0.989329 0.000000
vn 0.145701 -0.989329 0.000000
vn 0.459317 -0.888272 0.000000
vn 0.459317 -0.888272 0.000000
vn 1.000000 0.000000 0.000000
vn 1.000000 0.000000 0.000000
vn 1.000000 0.000000 0.000000
vn 1.000000 0.000000 0.000000
vn -1.000000 0.000000 0.000000
vn -1.000000 0.000000 0.000000
vn -1.000000 0.000000 0.000000
vn -1.000000 0.000000 0.000000
vn 0.000000 -1.000000 0.000000
vn 0.000000 -1.000000 0.000000
vn 0.000000 0.000000 -1.000000
vn 0.000000 0.000000 -1.000000
vn 0.000000 1.000000 0.000000
vn 0.000000 1.000000 0.000000
vn 0.000000 0.000000 1.000000
vn 0.000000 0.000000 1.000000
vn -0.132702 0.940888 -0.311641
vn -0.158844 0.792444 -0.588898
vn -0.156631 0.805052 -0.572152
vn -0.132080 0.944407 -0.301081
vn -0.198617 0.564323 -0.801305
vn -0.194557 0.587745 -0.785305
vn -0.246913 0.283568 -0.926619
vn -0.241556 0.314932 -0.917861
vn -0.297837 -0.017078 -0.954464
vn -0.292257 0.016132 -0.956204
vn -0.345828 -0.304933 -0.887366
vn -0.341109 -0.276392 -0.898472
vn -0.386521 -0.552628 -0.738380
vn -0.383326 -0.533027 -0.754283
vn -0.417046 -0.740723 -0.526690
vn -0.415452 -0.730834 -0.541554
vn -0.435825 -0.857454 -0.273548
vn -0.435401 -0.854803 -0.282378
vn -0.442149 -0.896942 0.000000
vn -0.442149 -0.896942 -0.000000
vn -0.435825 -0.857454 0.273548
vn -0.435401 -0.854803 0.282378
vn -0.417046 -0.740723 0.526690
vn -0.415452 -0.730834 0.541555
vn -0.386520 -0.552627 0.738380
vn -0.383325 -0.533027 0.754284
vn -0.345828 -0.304933 0.887366
vn -0.341109 -0.276392 0.898472
vn -0.297837 -0.017078 0.954464
vn -0.292257 0.016132 0.956204
vn -0.246913 0.283568 0.926619
vn -0.241556 0.314932 0.917861
vn -0.198617 0.564324 0.801305
vn -0.194557 0.587745 0.785305
vn -0.158844 0.792444 0.588899
vn -0.156631 0.805052 0.572153
vn -0.132702 0.940888 0.311642
vn -0.132080 0.944407 0.301082
vn -0.123594 0.992333 0.000000
vn -0.123594 0.992333 -0.000000
vn -1.000000 0.000001 0.000000
vn -1.000000 0.000001 0.000000
vn -1.000000 -0.000000 0.000000
vn -1.000000 0.000000 0.000000
vn -1.000000 0.000000 0.000000
vn -1.000000 0.000000 0.000000
vn -1.000000 0.000000 0.000000
vn -1.000000 0.000000 0.000000
vn -1.000000 -0.000002 0.000000
vn -1.000000 -0.000002 0.000000
vn -1.000000 0.000000 0.000000
vn -1.000000 0.000001 0.000000
vn -1.000000 -0.000001 0.000000
vn -1.000000 -0.000002 0.000000
vn -1.000000 0.000000 0.000000
vn -1.000000 0.000000 0.000000
vn -1.000000 0.000000 0.000000
vn -1.000000 0.000000 0.000000
vn -1.000000 -0.000002 0.000000
vn -1.000000 -0.000002 0.000000
vn -1.000000 0.000000 0.000000
s 1
g anvil_group_01
usemtl StingrayPBS1SG
f 9/3/1 10/5/2 4/6/3 3/7/4
s 2
f 5/8/5 6/11/6 11/12/7 12/19/8
s 3
f 12/1/9 9/4/10 3/13/11 5/14/12
s 1
f 13/20/13 14/22/14 10/5/2 9/3/1
s 4
f 14/16/15 15/17/16 11/9/17 10/2/18
s 2
f 12/19/8 11/12/7 15/23/19 16/24/20
s 3
f 16/21/21 13/18/22 9/4/10 12/1/9
s 1
f 1/27/23 2/28/24 14/22/14 13/20/13
s 4
f 2/39/25 8/40/26 15/17/16 14/16/15
s 2
f 16/24/20 15/23/19 8/29/27 7/30/28
s off
f 21/41/29 22/42/30 23/26/31 24/25/32
f 10/2/33 11/9/34 18/10/35 17/15/36
s 2
f 11/12/7 6/11/6 19/31/37 18/32/38
s 1
f 4/6/3 10/5/2 17/33/39 20/34/40
f 1/27/23 13/20/13 23/35/41 22/36/42
s off
f 13/18/43 16/21/44 24/25/45 23/26/46
s 2
f 16/24/20 7/30/28 21/37/47 24/38/48
s 5
f 33/43/49 34/44/50 28/45/51 27/46/52
s 6
f 29/47/53 30/48/54 35/49/55 36/50/56
s 7
f 36/51/57 33/52/58 27/53/59 29/54/60
s 5
f 37/55/61 38/56/62 34/44/50 33/43/49
s 8
f 38/57/63 39/58/64 35/59/65 34/60/66
s 6
f 36/50/56 35/49/55 39/61/67 40/62/68
s 7
f 40/63/69 37/64/70 33/52/58 36/51/57
s 5
f 25/65/71 26/66/72 38/56/62 37/55/61
s 8
f 26/67/73 32/68/74 39/58/64 38/57/63
s 6
f 40/62/68 39/61/67 32/69/75 31/70/76
s off
f 45/71/77 46/72/78 47/73/79 48/74/80
f 34/60/81 35/59/82 42/75/83 41/76/84
s 6
f 35/49/55 30/48/54 43/77/85 42/78/86
s 5
f 28/45/51 34/44/50 41/79/87 44/80/88
f 25/65/71 37/55/61 47/81/89 46/82/90
s off
f 37/64/91 40/63/92 48/74/93 47/73/94
s 6
f 40/62/68 31/70/76 45/83/95 48/84/96
s 9
f 60/85/97 57/86/98 50/87/99 52/88/100
s 10
f 59/89/101 60/85/102 52/90/103 54/91/104
s 11
f 58/92/105 59/89/106 54/93/107 56/94/108
s 12
f 57/95/109 58/92/110 56/96/111 50/97/112
s off
f 50/98/113 56/99/114 54/91/115 52/90/116
f 55/100/117 49/101/118 51/102/119 53/103/120
s 12
f 55/104/121 58/92/110 57/95/109 49/105/122
s 11
f 53/103/123 59/89/106 58/92/105 55/104/124
s 10
f 51/102/125 60/85/102 59/89/101 53/103/126
s 9
f 49/106/127 57/86/98 60/85/97 51/102/128
s 13
f 61/107/129 62/108/130 82/109/131 81/110/132
f 62/108/130 63/111/133 83/112/134 82/109/131
f 63/111/133 64/113/135 84/114/136 83/112/134
f 64/113/135 65/115/137 85/116/138 84/114/136
f 65/115/137 66/117/139 86/118/140 85/116/138
f 66/117/139 67/119/141 87/120/142 86/118/140
f 67/119/141 68/121/143 88/122/144 87/120/142
f 68/121/143 69/123/145 89/124/146 88/122/144
f 69/123/145 70/125/147 90/126/148 89/124/146
f 70/125/147 71/127/149 91/128/150 90/126/148
f 71/127/149 72/129/151 92/130/152 91/128/150
f 72/129/151 73/131/153 93/132/154 92/130/152
f 73/133/153 74/134/155 94/135/156 93/136/154
f 74/134/155 75/137/157 95/138/158 94/135/156
f 75/137/157 76/139/159 96/140/160 95/138/158
f 76/139/159 77/141/161 97/142/162 96/140/160
f 77/141/161 78/143/163 98/144/164 97/142/162
f 78/143/163 79/145/165 99/146/166 98/144/164
f 79/145/165 80/147/167 100/148/168 99/146/166
f 80/147/167 61/107/129 81/110/132 100/148/168
s 14
f 81/149/169 82/150/170 101/151/171
f 82/150/170 83/152/172 101/151/171
f 83/152/172 84/153/173 101/151/171
f 84/153/173 85/154/174 101/151/171
f 85/154/174 86/155/175 101/151/171
f 86/155/175 87/156/176 101/151/171
f 87/156/176 88/157/177 101/151/171
f 88/157/177 89/158/178 101/151/171
f 89/158/178 90/159/179 101/151/171
f 90/159/179 91/160/180 101/151/171
f 91/160/180 92/161/181 101/151/171
f 92/161/181 93/162/182 101/151/171
f 93/162/182 94/163/183 101/151/171
f 94/163/183 95/164/184 101/151/171
f 95/164/184 96/165/185 101/151/171
f 96/165/185 97/166/186 101/151/171
f 97/166/186 98/167/187 101/151/171
f 98/167/187 99/168/188 101/151/171
f 99/168/188 100/169/189 101/151/171
f 100/169/189 81/149/169 101/151/171
